<?xml version="1.0" standalone="no"?>
<!DOCTYPE svg PUBLIC "-//W3C//DTD SVG 20010904//EN"
 "http://www.w3.org/TR/2001/REC-SVG-20010904/DTD/svg10.dtd">
<svg version="1.0" xmlns="http://www.w3.org/2000/svg"
 width="150.000000pt" height="150.000000pt" viewBox="0 0 150.000000 150.000000"
 preserveAspectRatio="xMidYMid meet">
<metadata>
Created by potrace 1.11, written by Peter Selinger 2001-2013
</metadata>
<g transform="translate(0.000000,150.000000) scale(0.100000,-0.100000)"
fill="#000000" stroke="none">
<path d="M314 709 l0 -549 122 0 c108 0 122 2 125 18 2 9 4 104 3 210 l0 192
39 0 c88 0 114 -28 281 -307 l67 -113 140 0 c76 0 139 2 139 5 0 3 -52 86
-116 185 -118 183 -189 274 -224 285 -29 9 -24 22 13 34 83 28 163 115 189
206 32 112 -3 246 -79 301 -91 67 -136 75 -438 79 l-261 4 0 -550z m455 343
c63 -31 81 -73 70 -164 -4 -34 -54 -91 -94 -106 -30 -11 -79 -16 -146 -13
l-36 1 0 150 1 150 85 0 c62 0 96 -5 120 -18z"/>
</g>
</svg>
